# xmcd
#
# Track frame offsets:
#	150
#	16582
#	36280
#	54945
#	70885
#	93605
#	112575
#	129440
#	145215
#	160490
#
# Disc length: 2428 seconds
#
# Revision: 1
# Processed by: cddbd v1.5.1PL0 Copyright (c) Steve Scherf et al.
# Submitted via: CDex 1.50Beta5
#
DISCID=7b097a0a
DTITLE=中村由真 - EIGHTEEN
DYEAR=1988
DGENRE=Pop
TTITLE0=ようこそEIGHTEEN MEMBERS CLUB
TTITLE1=砂にたてたキャンドル
TTITLE2=君の夢に飛びたい
TTITLE3=Endless Love
TTITLE4=やわらかなプレゼント
TTITLE5=水に落ちたバイオレット
TTITLE6=春風にNon
TTITLE7=涙をかくしたロンリー・ボーイ
TTITLE8=Lady Wind
TTITLE9=青い月 蒼い恋
EXTD=
EXTT0=
EXTT1=
EXTT2=
EXTT3=
EXTT4=
EXTT5=
EXTT6=
EXTT7=
EXTT8=
EXTT9=
PLAYORDER=
